<mxfile host="app.diagrams.net" modified="2023-05-24T07:36:33.343Z" agent="Mozilla/5.0 (X11; Ubuntu; Linux x86_64; rv:109.0) Gecko/20100101 Firefox/113.0" version="21.2.9" etag="mlzM29rHoBGsFAzw7V6Y" type="github">
  <diagram name="Seite-1" id="gGb8F8SFDU_gt_yPM0_n">
    <mxGraphModel>
      <root>
        <mxCell id="0" />
        <mxCell id="1" parent="0" />
      </root>
    </mxGraphModel>
  </diagram>
</mxfile>
